<svg xmlns="http://www.w3.org/2000/svg" 
                    viewBox="0 0 32 32" 
                    width="24" 
                    height="24" 
                    fill="currentColor">
                <path d="M16 .3A15.7 15.7 0 0 0 0 16.1a15.6 15.6 0 0 0 2.3 8.2L0 32l8-2.1a15.8 15.8 0 0 0 8 
                        2.1 15.7 15.7 0 0 0 16-15.9A15.7 15.7 0 0 0 16 .3zm0 29a13 13 0 0 1-6.7-1.8l-.5-.3-4.7 
                        1.2 1.2-4.6-.3-.6A12.7 12.7 0 0 1 3 16a13 13 0 1 1 13 13zm7.2-9.8c-.4-.2-2.4-1.2-2.7-1.3s-.6-.2-.8.2-.9 
                        1.2-1.1 1.4-.4.3-.8.1a10.6 10.6 0 0 1-5.3-4.6c-.4-.7.4-.7 1-2.2l.3-.5c.2-.4 0-.7 0-1s-.8-2-1.1-2.7c-.3-.7-.6-.6-.8-.6h-.7a1.3 
                        1.3 0 0 0-.9.4c-.3.3-1.2 1.2-1.2 2.9s1.2 3.3 1.4 3.6 2.4 3.7 5.8 5.2 3.5 1 4.1.9 
                        2-1 2.3-1.9c.3-1 0-1.5-.3-1.7z"/>
                </svg>