<svg xmlns="http://www.w3.org/2000/svg">

    <symbol id="icon-logo" xmlns="http://www.w3.org/2000/svg" viewBox="0 0 250 80" fill="none">
  <text x="20" y="55" font-family="Jost, Inter, sans-serif" font-size="26" font-weight="700" fill="#4F46E5">
    { }
  </text>
  <text x="90" y="55" font-family="Jost, Inter, sans-serif" font-size="24" font-weight="700" fill="#111827">
    Saku <tspan fill="#4F46E5">Dev</tspan>
  </text>
</symbol>

<symbol id="icon-phone" viewBox="0 0 24 24" fill="none" xmlns="http://www.w3.org/2000/svg">
    <path
      d="M22.3494 17.0529L19.5456 14.2491C18.7956 13.4992 17.5613 13.4847 16.7942 14.217L15.228 15.7117C12.8175 14.3586 9.64171 11.1828 8.28861 8.77224L9.78336 7.20615C10.5156 6.4389 10.5012 5.20463 9.75125 4.45477L6.94747 1.65104C6.54889 1.25237 6.04016 1.05376 5.47719 1.07588C4.91389 1.09829 4.42288 1.33679 4.05721 1.7657L1.20903 5.1061C1.1241 5.20576 1.07656 5.33185 1.07464 5.46278C1.05102 7.06393 1.65374 8.93443 2.86597 11.0222C3.95244 12.8934 5.47841 14.8342 7.27892 16.6347C10.3305 19.6863 14.8545 22.9267 18.4502 22.9263C18.4792 22.9263 18.5087 22.9261 18.5375 22.9257C18.6685 22.9238 18.7946 22.8762 18.8942 22.7913L22.2346 19.9431C22.6635 19.5774 22.902 19.0864 22.9244 18.5231C22.9468 17.9598 22.7479 17.4514 22.3494 17.0529ZM21.5047 19.087L18.3235 21.7995C15.6378 21.7262 11.6469 19.4116 8.07444 15.8392C4.49811 12.2629 2.26785 8.39532 2.20058 5.67709L4.91333 2.49554C5.07449 2.30649 5.27357 2.20979 5.52191 2.1999C5.76997 2.1909 5.97627 2.27063 6.15196 2.44642L8.95574 5.2502C9.27711 5.57157 9.2833 6.10056 8.96952 6.42934L7.19436 8.28929C7.0303 8.46118 6.99196 8.71759 7.09855 8.92998C8.49266 11.708 12.2923 15.5076 15.0703 16.9017C15.2826 17.0083 15.5391 16.9699 15.7109 16.8059L17.5709 15.0307C17.8997 14.7169 18.4287 14.7231 18.7501 15.0445L21.5539 17.8483C21.7296 18.024 21.8102 18.2301 21.8003 18.4783C21.7905 18.7267 21.6938 18.9258 21.5047 19.087Z"
      fill="currentColor" />
  </symbol>

  <symbol id="icon-menu" width="24" height="24" viewBox="0 0 24 24" fill="currentColor" xmlns="http://www.w3.org/2000/svg">
<path d="M4.12494 7.12524H19.8749" stroke="currentColor" stroke-width="1.5" stroke-miterlimit="10" stroke-linecap="round"/>
<path d="M4.12494 12.0002H13.8749" stroke="currentColor" stroke-width="1.5" stroke-miterlimit="10" stroke-linecap="round"/>
<path d="M4.12494 16.874H16.8749" stroke="currentColor" stroke-width="1.5" stroke-miterlimit="10" stroke-linecap="round"/>
</symbol>
<symbol id="icon-watsapp" xmlns="http://www.w3.org/2000/svg" 
                    viewBox="0 0 32 32" 
                    width="24" 
                    height="24" 
                    fill="currentColor">
                <path d="M16 .3A15.7 15.7 0 0 0 0 16.1a15.6 15.6 0 0 0 2.3 8.2L0 32l8-2.1a15.8 15.8 0 0 0 8 
                        2.1 15.7 15.7 0 0 0 16-15.9A15.7 15.7 0 0 0 16 .3zm0 29a13 13 0 0 1-6.7-1.8l-.5-.3-4.7 
                        1.2 1.2-4.6-.3-.6A12.7 12.7 0 0 1 3 16a13 13 0 1 1 13 13zm7.2-9.8c-.4-.2-2.4-1.2-2.7-1.3s-.6-.2-.8.2-.9 
                        1.2-1.1 1.4-.4.3-.8.1a10.6 10.6 0 0 1-5.3-4.6c-.4-.7.4-.7 1-2.2l.3-.5c.2-.4 0-.7 0-1s-.8-2-1.1-2.7c-.3-.7-.6-.6-.8-.6h-.7a1.3 
                        1.3 0 0 0-.9.4c-.3.3-1.2 1.2-1.2 2.9s1.2 3.3 1.4 3.6 2.4 3.7 5.8 5.2 3.5 1 4.1.9 
                        2-1 2.3-1.9c.3-1 0-1.5-.3-1.7z"/>
</symbol>

<symbol id="icon-tg" viewBox="0 0 16 16" fill="none" xmlns="http://www.w3.org/2000/svg">
<path d="M1.67494 7.45297C5.61199 5.66542 8.2373 4.48696 9.55088 3.91759C13.3014 2.29191 14.0808 2.00951 14.5887 2.00009C14.7004 1.99814 14.9502 2.02699 15.112 2.16382C15.2487 2.27935 15.2863 2.43542 15.3043 2.54496C15.3222 2.6545 15.3446 2.90403 15.3268 3.099C15.1236 5.32443 14.2442 10.725 13.7968 13.2175C13.6074 14.2722 13.2347 14.6258 12.8738 14.6604C12.0895 14.7356 11.494 14.1203 10.7344 13.6014C9.54574 12.7894 8.87424 12.2839 7.72046 11.4916C6.38708 10.5759 7.25146 10.0726 8.01135 9.25012C8.21022 9.03486 11.6657 5.75943 11.7326 5.4623C11.741 5.42514 11.7488 5.28662 11.6698 5.21347C11.5908 5.14033 11.4743 5.16534 11.3902 5.18523C11.2709 5.21343 9.37209 6.52136 5.69359 9.10903C5.1546 9.49472 4.66641 9.68265 4.229 9.6728C3.74679 9.66194 2.81922 9.38867 2.12967 9.15508C1.2839 8.86858 0.611707 8.71711 0.67024 8.23053C0.700728 7.9771 1.03563 7.71791 1.67494 7.45297Z" fill="#000000ff"/>
</symbol>


</svg>